<?xml version="1.0" encoding="utf-8"?>
<!-- Generator: Adobe Illustrator 24.1.2, SVG Export Plug-In . SVG Version: 6.00 Build 0)  -->
<svg version="1.1" id="Layer_1" xmlns="http://www.w3.org/2000/svg" xmlns:xlink="http://www.w3.org/1999/xlink" x="0px" y="0px"
	 viewBox="0 0 17 21.9" style="enable-background:new 0 0 17 21.9;" xml:space="preserve">
<style type="text/css">
	.st0{fill:#355151;}
</style>
<path class="st0" d="M0.2,11.1c0.7,0.5,1.4,1,2.1,1.6c0.7,0.6,1.3,1.2,1.9,1.7C4.8,15,5.4,15.7,6,16.3c0.6,0.6,1.1,1.3,1.6,2L5,18.4
	C6,16.8,7,15.3,8,13.8s1.9-3.1,2.9-4.6c1-1.5,2-3.1,2.9-4.6c0.9-1.5,1.9-3,2.9-4.6L17,0.1c-0.7,1.7-1.5,3.3-2.3,5
	C14,6.8,13.2,8.4,12.4,10c-0.8,1.7-1.6,3.3-2.4,4.9c-0.8,1.6-1.5,3.3-2.3,4.9l-1,2l-1.5-1.8c-0.6-0.7-1-1.4-1.5-2
	c-0.5-0.7-0.9-1.4-1.4-2.2c-0.4-0.7-0.9-1.5-1.2-2.3c-0.3-0.7-0.7-1.5-1-2.3L0.2,11.1z"/>
</svg>
