<?xml version="1.0" encoding="utf-8"?>
<!-- Generator: Adobe Illustrator 24.1.2, SVG Export Plug-In . SVG Version: 6.00 Build 0)  -->
<svg version="1.1" id="Layer_1" xmlns="http://www.w3.org/2000/svg" xmlns:xlink="http://www.w3.org/1999/xlink" x="0px" y="0px"
	 viewBox="0 0 14 21.5" style="enable-background:new 0 0 14 21.5;" xml:space="preserve">
<style type="text/css">
	.st0{fill:#355151;}
</style>
<path class="st0" d="M7,21.5c-3.5,0-5.7-2-6.7-4.6c-1-2.5,0.5-5.1,1.5-6.1c1-1,1-3.1,1-4.1c0-1,1.4-4,4.2-4c2.5,0,4.1,3.1,4.1,4.1
	c0,1,0,3.1,1,4.1c1,1,2.5,3.6,1.5,6.1C12.6,19.5,10.6,21.5,7,21.5z"/>
<path class="st0" d="M6.9,4.3c-0.1,0-0.2,0-0.3-0.1C6.2,4,6.1,3.6,6.3,3.2C6.6,2.5,6.5,1.7,6,1.4c-0.3-0.2-0.4-0.7-0.2-1
	C6,0,6.5-0.1,6.8,0.1C8,0.9,8.3,2.5,7.6,3.9C7.4,4.2,7.2,4.3,6.9,4.3z"/>
</svg>
