<?xml version="1.0" encoding="utf-8"?>
<!-- Generator: Adobe Illustrator 24.1.2, SVG Export Plug-In . SVG Version: 6.00 Build 0)  -->
<svg version="1.1" id="Layer_1" xmlns="http://www.w3.org/2000/svg" xmlns:xlink="http://www.w3.org/1999/xlink" x="0px" y="0px"
	 viewBox="0 0 14 21.5" style="enable-background:new 0 0 14 21.5;" xml:space="preserve">
<style type="text/css">
	.st0{fill:#355151;}
</style>
<path class="st0" d="M6.9,3.7c1.8,0,3,2.4,3,3c0,1.1,0,3.5,1.3,4.8c0.6,0.6,2.1,2.8,1.3,4.9c-0.7,1.8-2.2,3.9-5.6,3.9
	s-5-2.1-5.6-3.9c-0.9-2.1,0.6-4.3,1.3-4.9c1.3-1.3,1.3-3.7,1.3-4.8C3.9,6.2,4.9,3.7,6.9,3.7z M6.9,2.6c-2.7,0-4.1,3.1-4.1,4.1
	c0,1,0,3.1-1,4.1c-1,1-2.5,3.5-1.5,6.1c1,2.6,3.1,4.6,6.7,4.6c3.5,0,5.6-2,6.7-4.6c1-2.5-0.5-5.1-1.5-6.1c-1-1-1-3.1-1-4.1
	C11.2,5.7,9.5,2.6,6.9,2.6z"/>
<path class="st0" d="M6.9,4.3c-0.1,0-0.2,0-0.3-0.1C6.2,4,6.1,3.6,6.3,3.2C6.6,2.5,6.5,1.7,6,1.4c-0.3-0.2-0.4-0.7-0.2-1
	C6,0,6.5-0.1,6.8,0.1C8,0.9,8.3,2.5,7.6,3.9C7.4,4.2,7.2,4.3,6.9,4.3z"/>
</svg>
